<svg xmlns="http://www.w3.org/2000/svg" viewBox="0 0 441.16 599"><defs><style>.cls-1{fill:#25aa07;}.cls-2{fill:#022e4f;}.cls-3,.cls-5{fill:#fff;}.cls-3{stroke:#fff;stroke-miterlimit:10;}.cls-4{fill:#1b1c1b;}</style></defs><title>logoproeltecfinal-grafico-svg</title><g id="bombillo"><rect class="cls-1" y="51.4" width="39.18" height="39.18"/><rect class="cls-1" x="76.76" y="15.04" width="33.96" height="33.96"/><rect class="cls-1" x="17.45" width="20.27" height="20.41"/><rect class="cls-1" x="56.39" y="95.9" width="58.7" height="58.7"/></g><g id="culo_bombillo" data-name="culo bombillo"><rect class="cls-2" x="177.93" y="496.76" width="153.01" height="22.91" rx="11.45"/><rect class="cls-2" x="198.25" y="535.54" width="115.2" height="22.91" rx="11.45"/><rect class="cls-2" x="218.41" y="576.09" width="74.88" height="22.91" rx="11.45"/></g><g id="camara"><path class="cls-1" d="M489.22,165.29H489c-1.46-.06-2.93-.11-4.4-.14h-1.08c-.85,0-1.7,0-2.56,0H479.9l-1.53,0c-1.1,0-2.19,0-3.29.07h-.58c-.7,0-1.4.06-2.1.09l-1.66.08c-1.14.06-2.28.13-3.41.21l-1.65.13L463,166l-1.49.14c-1.23.13-2.45.27-3.67.42l-1.73.23c-.79.1-1.57.21-2.35.33l-1.79.26c-1.15.18-2.31.37-3.46.58l-1.92.35-2,.38-2.05.41-2.05.45c-1.11.25-2.22.5-3.32.77l-1.65.4-2.21.56-1.53.42c-1.25.34-2.49.69-3.73,1.06l-1.54.46c-.72.21-1.43.44-2.15.67l-.5.15h0A186.29,186.29,0,0,0,357,212.33v84.22H302.73c-.66,2.13-1.29,4.28-1.87,6.45h0c-.18.66-.33,1.33-.5,2v0a186.6,186.6,0,0,0,51.93,181.65l.54.51c11.59,10.94,22.86,27.51,31.27,47.41a159.4,159.4,0,0,1,10.86,37.54c.17,1.08.31,2.14.44,3.19V599a10.14,10.14,0,0,0,10.15,10.15H556.13A10.15,10.15,0,0,0,566.28,599V575.47s0-.06,0-.09c.14-1.06.28-2.14.45-3.22a159.05,159.05,0,0,1,10.83-37.28c8.42-20,19.72-36.54,31.34-47.48A187.58,187.58,0,0,0,645,440.6l0-.08c.66-1.22,1.31-2.45,1.94-3.69l.21-.39c.59-1.16,1.17-2.32,1.73-3.49.11-.22.22-.44.32-.66q.79-1.65,1.56-3.33l.4-.87c.48-1.06.94-2.13,1.4-3.21l.45-1.05c.43-1,.85-2.06,1.27-3.1l.48-1.22c.39-1,.77-2,1.14-3,.17-.45.34-.91.5-1.36.36-1,.7-1.95,1-2.93.17-.5.34-1,.5-1.5.32-.95.63-1.9.93-2.86.17-.54.34-1.08.5-1.62.29-.92.56-1.85.83-2.79.17-.58.33-1.16.5-1.74.25-.91.49-1.81.73-2.72l.48-1.86c.22-.89.43-1.77.64-2.66q.24-1,.45-2c.2-.86.39-1.72.57-2.59l.42-2.11c.16-.83.33-1.66.48-2.5l.39-2.25c.13-.8.27-1.6.4-2.4s.23-1.61.35-2.42.22-1.52.32-2.28.21-1.74.31-2.6.17-1.43.24-2.14q.15-1.43.27-2.85c.06-.65.12-1.29.17-1.93.08-1.06.15-2.13.21-3.2,0-.54.08-1.08.11-1.62.06-1.25.11-2.51.15-3.77,0-.36,0-.72,0-1.08.05-1.7.07-3.4.07-5.11A186.52,186.52,0,0,0,489.22,165.29ZM478.13,473.93A121.17,121.17,0,0,1,357,352.76v-1.33a121.17,121.17,0,0,1,242.33,1.13c0,.07,0,.13,0,.2A121.17,121.17,0,0,1,478.13,473.93Z" transform="translate(-226.35 -123.12)"/><circle class="cls-3" cx="251.78" cy="228.93" r="120.93"/><path class="cls-4" d="M547.09,404.47c.49-.57,1-1.13,1.46-1.7s.73-.91,1.09-1.36c.5-.63,1-1.25,1.48-1.89.33-.43.64-.88,1-1.31.49-.68,1-1.36,1.46-2.06.29-.42.56-.85.83-1.28.48-.72.95-1.45,1.4-2.19.26-.43.51-.86.76-1.29.44-.76.88-1.51,1.3-2.28.25-.45.47-.9.71-1.35.4-.77.8-1.53,1.18-2.31.23-.49.45-1,.68-1.48.34-.75.69-1.51,1-2.27.24-.55.45-1.12.68-1.68s.57-1.42.84-2.15.45-1.29.67-1.93.45-1.31.66-2,.43-1.49.65-2.25c.16-.57.33-1.15.48-1.73.22-.86.41-1.72.61-2.58.11-.5.23-1,.33-1.49.2-1,.36-1.92.53-2.88.07-.42.15-.84.22-1.27.15-1,.28-2.06.4-3.1,0-.37.1-.75.14-1.13.1-1,.17-2.09.24-3.13,0-.4.06-.8.08-1.2.05-1,.06-1.92.08-2.89,0-.44,0-.87,0-1.31,0-.08,0-.15,0-.22,0-.75,0-1.5,0-2.25s0-1.49-.08-2.24a1.7,1.7,0,0,0,0-.22c0-.44-.07-.87-.11-1.31-.07-1-.14-1.93-.24-2.88,0-.4-.11-.79-.15-1.19-.13-1-.26-2.08-.43-3.11-.06-.38-.14-.75-.21-1.13-.18-1-.36-2.05-.58-3.07-.09-.42-.2-.83-.29-1.25-.22-.95-.44-1.91-.69-2.85-.14-.49-.29-1-.43-1.47-.24-.85-.49-1.7-.75-2.53-.19-.58-.4-1.15-.6-1.72-.25-.73-.5-1.47-.77-2.2s-.52-1.29-.78-1.93-.51-1.27-.78-1.89-.64-1.41-1-2.11c-.25-.54-.5-1.09-.77-1.63-.37-.75-.76-1.48-1.15-2.21-.25-.48-.5-1-.76-1.43-.42-.76-.87-1.5-1.32-2.25-.26-.43-.51-.87-.78-1.3-.46-.75-1-1.48-1.44-2.21-.27-.41-.54-.83-.82-1.24-.5-.71-1-1.42-1.53-2.12-.31-.4-.6-.82-.91-1.22-.51-.67-1-1.32-1.58-2-.34-.42-.67-.84-1-1.25q-.78-.92-1.59-1.8c-.38-.44-.77-.88-1.17-1.3s-1-1.08-1.56-1.61-.89-.92-1.34-1.36l-1.51-1.42c-.52-.47-1-.95-1.55-1.41s-.95-.82-1.44-1.23-1.15-1-1.74-1.45-.91-.71-1.37-1.06c-.64-.5-1.29-1-1.94-1.47-.43-.31-.87-.61-1.31-.91-.7-.49-1.4-1-2.12-1.45-.42-.28-.85-.54-1.27-.81-.75-.47-1.5-.94-2.27-1.39-.42-.25-.85-.48-1.28-.72-.78-.45-1.56-.89-2.35-1.3-.44-.24-.9-.46-1.35-.68-.79-.4-1.57-.8-2.38-1.17-.48-.23-1-.44-1.48-.66-.77-.34-1.54-.69-2.33-1-.55-.23-1.12-.43-1.68-.65-.73-.28-1.47-.57-2.22-.84l-1.93-.64-2-.66c-.75-.22-1.51-.42-2.26-.63l-1.8-.49c-.86-.21-1.73-.39-2.59-.58-.52-.12-1-.24-1.55-.34-1-.19-1.93-.35-2.9-.51-.44-.07-.88-.16-1.32-.22-1-.15-2.08-.27-3.12-.39l-1.19-.14c-1.05-.1-2.1-.17-3.16-.24l-1.24-.08c-1-.05-1.94-.06-2.92-.07-.45,0-.9,0-1.36,0h-.22c-.87,0-1.75,0-2.62.07-.67,0-1.35,0-2,.06h-.15c-.53,0-1.05.09-1.57.12-.94.07-1.89.14-2.82.24l-1,.12c-1.16.14-2.32.28-3.47.46l-.19,0q-2.75.45-5.44,1.07c-1,.22-1.94.43-2.9.68l-.12,0a86.64,86.64,0,0,0-46.34,30.54h0c-.09.11-.17.23-.26.35-.52.68-1,1.36-1.54,2.06l-.64.9c-.49.7-1,1.4-1.45,2.11l-.49.77q-1.54,2.39-2.92,4.86c-.07.12-.14.24-.2.36-.36.66-.7,1.33-1.05,2-.23.45-.47.91-.69,1.37-.32.63-.62,1.28-.91,1.92s-.47,1-.69,1.53-.55,1.27-.81,1.91-.43,1.09-.64,1.63-.48,1.27-.71,1.91-.39,1.17-.59,1.75c-.36,1.1-.7,2.22-1,3.34-.18.64-.37,1.27-.54,1.91s-.31,1.32-.47,2-.27,1.17-.4,1.76-.27,1.35-.39,2-.21,1.19-.31,1.78-.22,1.37-.31,2.06-.15,1.23-.22,1.85-.16,1.34-.22,2-.11,1.47-.15,2.2-.09,1.39-.12,2.09c0,1.07-.07,2.14-.07,3.22,0,.07,0,.14,0,.22,0,.74,0,1.49.05,2.24s0,1.5.08,2.24a1.55,1.55,0,0,0,0,.22c0,.39.07.78.1,1.17.07,1,.15,2.08.26,3.11.05.41.11.81.16,1.21.13,1.07.27,2.14.45,3.19.06.4.14.8.21,1.2.19,1,.38,2.07.61,3.1.09.42.19.84.29,1.26.23,1,.47,2,.74,2.94.12.44.25.88.38,1.32.27.94.55,1.87.86,2.8l.46,1.35c.32.89.64,1.79,1,2.67.18.46.36.9.54,1.35.36.87.72,1.74,1.11,2.6.19.44.39.87.6,1.3.4.86.81,1.72,1.24,2.56l.64,1.22c.45.86.93,1.71,1.41,2.56.21.36.42.72.64,1.08.52.88,1.06,1.75,1.61,2.61l.6.91c.61.91,1.23,1.81,1.86,2.69l.52.71c.7.95,1.42,1.88,2.15,2.8.13.15.25.31.38.47.81,1,1.64,2,2.5,2.93l.19.21A86.5,86.5,0,0,0,438.59,423l.22.13c.91.5,1.84,1,2.77,1.47l.45.23c.92.46,1.85.91,2.79,1.34l.27.12a86,86,0,0,0,8.47,3.32c.45.15.89.31,1.34.45.67.21,1.34.41,2,.6l1.85.52,1.8.46,2.33.53,1.44.3q3.95.78,8,1.2l.79.06c1.1.11,2.21.19,3.33.25l1.13.06c1,0,2,.06,3.05.07l.76,0h.51c1,0,1.95,0,2.93-.08l1.32,0h.25l1.35-.11c1-.07,1.95-.14,2.92-.24l1.22-.15c1.06-.13,2.11-.26,3.16-.42.39-.06.77-.14,1.16-.21,1-.17,2.08-.35,3.11-.56l1.29-.3c1-.21,1.93-.43,2.88-.67l1.51-.43c.86-.24,1.72-.47,2.56-.73.6-.19,1.18-.39,1.77-.59.74-.25,1.49-.49,2.22-.76s1.33-.51,2-.77,1.27-.49,1.9-.75,1.45-.64,2.17-1c.54-.24,1.1-.48,1.64-.74.76-.37,1.51-.76,2.27-1.14l1.43-.74c.78-.42,1.54-.86,2.31-1.31l1.31-.75c.76-.46,1.51-.95,2.26-1.43.42-.27.84-.52,1.24-.8.74-.49,1.46-1,2.17-1.51.41-.3.83-.58,1.23-.88.69-.51,1.36-1,2-1.57l1.26-1,1.85-1.58,1.3-1.13c.56-.51,1.11-1,1.66-1.55L543,408.9c.49-.49,1-1,1.45-1.5s1-1,1.42-1.5S546.67,405,547.09,404.47Z" transform="translate(-226.35 -123.12)"/><circle class="cls-5" cx="300.77" cy="178.99" r="5.56"/><circle class="cls-5" cx="255.15" cy="228.93" r="19.5"/></g></svg>