<svg xmlns="http://www.w3.org/2000/svg" viewBox="0 0 978.39 398.2"><defs><style>.cls-1{fill:#25aa07;}.cls-2,.cls-4{fill:#fff;}.cls-2{stroke:#fff;stroke-miterlimit:10;}.cls-3{fill:#1b1c1b;}.cls-5,.cls-6,.cls-7{fill:#022e4f;}.cls-6{font-size:92px;letter-spacing:0.05em;}.cls-6,.cls-7{font-family:EASPORTS, "EA Font v1.5 by Ghettoshark";}.cls-7{font-size:31px;letter-spacing:0.05em;}</style></defs><title>logo proeltecfinal-largo-svg</title><g id="nombre"><path class="cls-1" d="M192,258.83h-.14c-1,0-1.94-.07-2.92-.09h-.72l-1.7,0h-1.73c-.73,0-1.46,0-2.19,0h-.38l-1.4.06-1.1.06-2.27.14-1.1.09-1.78.15-1,.1c-.81.08-1.63.18-2.44.28l-1.15.15-1.56.22-1.19.17-2.3.38-1.28.24-1.31.25-1.36.28-1.37.29-2.21.51-1.09.27-1.47.38-1,.27c-.83.23-1.66.46-2.48.71l-1,.3-1.43.44-.33.11h0A123.82,123.82,0,0,0,104,290.1v56H68c-.44,1.42-.86,2.85-1.25,4.29h0c-.12.44-.22.89-.34,1.33v0a124,124,0,0,0,34.52,120.76l.36.33c7.71,7.28,15.2,18.29,20.79,31.52a105.88,105.88,0,0,1,7.22,25c.11.71.21,1.42.29,2.12v15.73a6.75,6.75,0,0,0,6.75,6.75H236.43a6.75,6.75,0,0,0,6.75-6.75V531.5s0,0,0-.06c.09-.7.19-1.42.3-2.14a105.46,105.46,0,0,1,7.2-24.78c5.59-13.26,13.11-24.29,20.83-31.56a124.45,124.45,0,0,0,24-31.12l0,0c.44-.81.87-1.63,1.29-2.45.05-.09.1-.17.14-.26.39-.77.78-1.54,1.15-2.32.07-.15.15-.29.22-.44.35-.73.69-1.47,1-2.21.09-.2.18-.39.26-.58.32-.71.63-1.42.94-2.13l.3-.7.84-2.07c.11-.26.21-.53.32-.8.26-.67.51-1.33.76-2l.33-.91q.36-1,.69-1.95c.11-.33.22-.66.34-1,.21-.63.41-1.27.61-1.9.12-.36.23-.72.34-1.08.18-.62.37-1.23.55-1.85L306,416c.16-.61.33-1.21.49-1.81l.31-1.24c.15-.59.29-1.18.43-1.77l.3-1.32c.13-.57.25-1.14.37-1.71s.19-.94.28-1.41.22-1.1.32-1.66.18-1,.26-1.5L309,402c.08-.54.16-1.07.23-1.61s.15-1,.21-1.52.14-1.15.21-1.73.11-.94.16-1.42.12-1.26.18-1.89c0-.43.08-.86.11-1.28.06-.71.1-1.42.15-2.13,0-.36,0-.72.06-1.08,0-.83.08-1.67.11-2.51,0-.23,0-.47,0-.71,0-1.13.05-2.26.05-3.4A124,124,0,0,0,192,258.83ZM184.58,464A80.55,80.55,0,0,1,104,383.45v-.88a80.55,80.55,0,0,1,161.1.75v.13A80.55,80.55,0,0,1,184.58,464Z" transform="translate(-17.2 -230.79)"/><circle class="cls-2" cx="167.38" cy="152.19" r="80.39"/><path class="cls-3" d="M230.42,417.83c.33-.38.66-.75,1-1.13l.72-.91c.33-.41.67-.83,1-1.25l.63-.88c.32-.45.65-.9,1-1.36l.56-.85c.31-.49.63-1,.93-1.46.17-.28.33-.57.5-.86.3-.5.59-1,.87-1.51l.47-.9c.26-.51.53-1,.78-1.54.16-.32.3-.65.45-1,.23-.5.46-1,.68-1.51s.3-.74.45-1.11.38-.95.56-1.43l.44-1.29c.15-.44.3-.87.44-1.31s.29-1,.43-1.5.22-.76.32-1.15c.15-.57.28-1.14.41-1.72.07-.33.15-.65.22-1,.13-.64.24-1.28.35-1.92.05-.28.1-.56.14-.84.11-.68.19-1.37.27-2.06,0-.25.07-.5.09-.76.07-.69.12-1.38.16-2.08,0-.27.05-.53.06-.79,0-.64,0-1.28.05-1.93,0-.29,0-.58,0-.87v-.15c0-.49,0-1,0-1.49s0-1-.05-1.49a.66.66,0,0,0,0-.14c0-.3-.05-.58-.07-.87-.05-.64-.09-1.29-.16-1.92,0-.27-.07-.53-.1-.79-.09-.69-.18-1.38-.29-2.07,0-.25-.09-.5-.13-.75-.12-.68-.25-1.37-.39-2-.06-.28-.13-.55-.2-.83-.14-.64-.29-1.27-.46-1.89-.09-.33-.19-.66-.28-1-.16-.57-.32-1.13-.5-1.69l-.39-1.14c-.17-.49-.34-1-.52-1.46s-.34-.86-.52-1.29-.33-.84-.52-1.25-.42-.94-.64-1.4-.33-.73-.51-1.09-.51-1-.77-1.47c-.17-.31-.33-.63-.5-.95-.28-.5-.58-1-.88-1.49-.17-.29-.34-.58-.52-.87q-.47-.74-1-1.47c-.18-.27-.35-.55-.54-.82-.33-.47-.68-.94-1-1.41l-.6-.81c-.34-.44-.7-.88-1.05-1.31s-.45-.56-.68-.83-.7-.8-1.06-1.2-.51-.58-.77-.86-.69-.72-1-1.08l-.9-.9-1-.94-1-.94c-.31-.28-.63-.54-.95-.81s-.77-.66-1.16-1l-.91-.7c-.43-.33-.86-.66-1.3-1-.28-.21-.57-.41-.86-.61l-1.41-1-.85-.54-1.5-.92c-.28-.17-.57-.32-.86-.48q-.76-.45-1.56-.87l-.9-.45c-.52-.26-1-.53-1.58-.77-.32-.16-.65-.3-1-.44-.51-.23-1-.46-1.55-.67l-1.12-.44c-.49-.18-1-.38-1.47-.55l-1.29-.43-1.36-.44c-.49-.15-1-.28-1.5-.42L201,326.1c-.57-.14-1.15-.27-1.73-.39l-1-.23c-.64-.12-1.29-.23-1.93-.33l-.88-.15c-.69-.1-1.38-.18-2.07-.26-.27,0-.53-.07-.8-.09-.69-.07-1.39-.12-2.09-.16l-.83-.06c-.65,0-1.29,0-1.94,0-.3,0-.6,0-.91,0h-.14c-.58,0-1.16,0-1.74,0l-1.35,0h-.1l-1,.08c-.63,0-1.26.09-1.88.16l-.63.08c-.77.09-1.54.18-2.31.3l-.13,0c-1.21.19-2.42.44-3.61.7-.65.15-1.29.29-1.93.46l-.08,0A57.59,57.59,0,0,0,141,346.6h0a2,2,0,0,0-.17.23c-.35.45-.7.91-1,1.37l-.42.6c-.33.46-.66.93-1,1.4l-.33.51c-.68,1.06-1.33,2.14-1.94,3.24l-.13.23c-.24.44-.47.88-.69,1.33s-.32.6-.47.91-.4.85-.6,1.28-.31.68-.46,1-.36.84-.53,1.27-.29.72-.43,1.08-.32.84-.47,1.27-.26.77-.39,1.16c-.25.74-.47,1.48-.69,2.23-.12.42-.24.84-.35,1.26s-.21.88-.31,1.32-.19.78-.27,1.17-.18.9-.26,1.36l-.21,1.18c-.07.45-.14.91-.2,1.36s-.11.83-.15,1.24-.11.89-.15,1.34-.07,1-.1,1.46-.06.93-.08,1.39c0,.71,0,1.42,0,2.14v.15c0,.49,0,1,0,1.49s0,1,.05,1.49a.76.76,0,0,0,0,.15c0,.26,0,.51.06.77.05.69.1,1.39.18,2.07,0,.27.07.54.1.81.09.7.19,1.41.3,2.11,0,.27.1.54.15.8.12.69.25,1.38.4,2.06.06.28.13.56.19.84.16.65.32,1.31.49,1.95.08.3.17.59.25.88.19.62.37,1.25.58,1.86.1.3.2.6.31.9.2.6.42,1.19.65,1.78q.17.45.36.9c.23.57.47,1.15.73,1.72.13.29.26.58.4.87.27.57.54,1.14.83,1.7l.42.81c.3.57.62,1.14.94,1.7l.42.72c.35.58.71,1.16,1.08,1.73l.39.61c.41.6.82,1.2,1.24,1.79l.34.47q.7.94,1.44,1.86c.08.1.16.21.25.31.54.66,1.09,1.31,1.66,1.95l.12.14a57.53,57.53,0,0,0,14.76,11.8l.14.08c.61.34,1.22.67,1.84,1l.3.15c.62.31,1.23.61,1.86.9l.18.08c1.83.83,3.71,1.56,5.63,2.21l.89.29,1.34.4,1.23.35,1.19.3c.52.13,1,.24,1.56.35l.95.21c1.75.34,3.53.61,5.32.79l.53,0c.73.06,1.47.12,2.21.16l.75,0,2,0h.84c.65,0,1.3,0,1.95,0,.3,0,.59,0,.88,0h.17c.3,0,.59-.05.89-.07.65-.05,1.3-.09,1.94-.16l.82-.1c.7-.08,1.4-.17,2.09-.28l.78-.13c.69-.12,1.38-.24,2.06-.38l.86-.2c.64-.14,1.28-.28,1.91-.45.34-.08.68-.18,1-.28.57-.16,1.14-.31,1.7-.49.4-.12.79-.26,1.18-.39s1-.32,1.47-.5.89-.34,1.33-.51l1.26-.51c.49-.2,1-.42,1.44-.64l1.09-.49c.51-.24,1-.5,1.51-.76.32-.16.64-.32.95-.49.52-.28,1-.57,1.54-.87l.87-.5c.51-.3,1-.63,1.5-.95l.83-.53c.49-.33,1-.67,1.44-1l.82-.58c.46-.34.9-.69,1.35-1,.27-.22.56-.43.83-.66s.82-.69,1.23-1l.87-.76,1.1-1c.3-.29.61-.57.91-.87s.65-.66,1-1,.63-.65.94-1S230.14,418.14,230.42,417.83Z" transform="translate(-17.2 -230.79)"/><circle class="cls-4" cx="199.94" cy="118.99" r="3.7"/><circle class="cls-4" cx="169.62" cy="152.19" r="12.96"/><rect class="cls-1" y="34.17" width="26.05" height="26.05"/><rect class="cls-1" x="51.03" y="10" width="22.58" height="22.58"/><rect class="cls-1" x="11.6" width="13.48" height="13.57"/><rect class="cls-1" x="37.49" y="63.76" width="39.02" height="39.02"/><rect class="cls-5" x="118.28" y="330.23" width="101.72" height="15.23" rx="7.61"/><rect class="cls-5" x="131.79" y="356.02" width="76.58" height="15.23" rx="3.89"/><rect class="cls-5" x="145.2" y="382.97" width="49.78" height="15.23" rx="3.89"/><text class="cls-6" transform="translate(299.36 268.87)">PROELTEC S.A.S</text><text class="cls-7" transform="translate(346.68 308.61)">trabajo con calidad a precio justo</text></g></svg>